<mxfile host="app.diagrams.net" modified="2022-11-24T14:22:26.605Z" agent="5.0 (X11)" etag="YWrx29k-R9SbZQYvmyW9" version="20.6.0" type="github">
  <diagram id="0YzVZVSKIRS8GfVN_3J6" name="Page-1">
    <mxGraphModel dx="1296" dy="718" grid="1" gridSize="10" guides="1" tooltips="1" connect="1" arrows="1" fold="1" page="1" pageScale="1" pageWidth="850" pageHeight="1100" math="0" shadow="0">
      <root>
        <mxCell id="0" />
        <mxCell id="1" parent="0" />
        <mxCell id="U0wfsAF0q6kyz8NtuZ6O-1" value="CSF NTT Jakarta" style="outlineConnect=0;dashed=0;verticalLabelPosition=bottom;verticalAlign=top;align=center;html=1;shape=mxgraph.aws3.router;fillColor=#F58536;gradientColor=none;" vertex="1" parent="1">
          <mxGeometry x="260" y="280" width="50" height="50" as="geometry" />
        </mxCell>
        <mxCell id="U0wfsAF0q6kyz8NtuZ6O-2" value="3D IDC Jakarta" style="outlineConnect=0;dashed=0;verticalLabelPosition=bottom;verticalAlign=top;align=center;html=1;shape=mxgraph.aws3.router;fillColor=#F58536;gradientColor=none;" vertex="1" parent="1">
          <mxGeometry x="590" y="280" width="50" height="50" as="geometry" />
        </mxCell>
        <mxCell id="U0wfsAF0q6kyz8NtuZ6O-3" value="BBU Bandung" style="outlineConnect=0;dashed=0;verticalLabelPosition=bottom;verticalAlign=top;align=center;html=1;shape=mxgraph.aws3.router;fillColor=#F58536;gradientColor=none;" vertex="1" parent="1">
          <mxGeometry x="260" y="470" width="50" height="50" as="geometry" />
        </mxCell>
        <mxCell id="U0wfsAF0q6kyz8NtuZ6O-4" value="Mulyasari Bandung" style="outlineConnect=0;dashed=0;verticalLabelPosition=bottom;verticalAlign=top;align=center;html=1;shape=mxgraph.aws3.router;fillColor=#F58536;gradientColor=none;" vertex="1" parent="1">
          <mxGeometry x="590" y="470" width="50" height="50" as="geometry" />
        </mxCell>
        <mxCell id="U0wfsAF0q6kyz8NtuZ6O-6" value="" style="endArrow=classic;startArrow=none;html=1;rounded=0;exitX=1;exitY=0.5;exitDx=0;exitDy=0;exitPerimeter=0;entryX=0;entryY=0.5;entryDx=0;entryDy=0;entryPerimeter=0;" edge="1" parent="1" source="U0wfsAF0q6kyz8NtuZ6O-36" target="U0wfsAF0q6kyz8NtuZ6O-4">
          <mxGeometry width="50" height="50" relative="1" as="geometry">
            <mxPoint x="400" y="490" as="sourcePoint" />
            <mxPoint x="450" y="440" as="targetPoint" />
          </mxGeometry>
        </mxCell>
        <mxCell id="U0wfsAF0q6kyz8NtuZ6O-7" value="" style="endArrow=classic;startArrow=none;html=1;rounded=0;entryX=0.5;entryY=1;entryDx=0;entryDy=0;entryPerimeter=0;exitX=0.5;exitY=0;exitDx=0;exitDy=0;exitPerimeter=0;" edge="1" parent="1" source="U0wfsAF0q6kyz8NtuZ6O-37" target="U0wfsAF0q6kyz8NtuZ6O-1">
          <mxGeometry width="50" height="50" relative="1" as="geometry">
            <mxPoint x="200" y="450" as="sourcePoint" />
            <mxPoint x="250" y="400" as="targetPoint" />
          </mxGeometry>
        </mxCell>
        <mxCell id="U0wfsAF0q6kyz8NtuZ6O-8" value="" style="endArrow=classic;startArrow=none;html=1;rounded=0;entryX=0.5;entryY=1;entryDx=0;entryDy=0;entryPerimeter=0;exitX=0.5;exitY=0;exitDx=0;exitDy=0;exitPerimeter=0;" edge="1" parent="1" source="U0wfsAF0q6kyz8NtuZ6O-38" target="U0wfsAF0q6kyz8NtuZ6O-2">
          <mxGeometry width="50" height="50" relative="1" as="geometry">
            <mxPoint x="560" y="430" as="sourcePoint" />
            <mxPoint x="610" y="380" as="targetPoint" />
          </mxGeometry>
        </mxCell>
        <mxCell id="U0wfsAF0q6kyz8NtuZ6O-9" value="" style="endArrow=classic;startArrow=none;html=1;rounded=0;exitX=1;exitY=0.5;exitDx=0;exitDy=0;exitPerimeter=0;entryX=0;entryY=0.5;entryDx=0;entryDy=0;entryPerimeter=0;" edge="1" parent="1" source="U0wfsAF0q6kyz8NtuZ6O-55" target="U0wfsAF0q6kyz8NtuZ6O-2">
          <mxGeometry width="50" height="50" relative="1" as="geometry">
            <mxPoint x="420" y="370" as="sourcePoint" />
            <mxPoint x="470" y="320" as="targetPoint" />
          </mxGeometry>
        </mxCell>
        <mxCell id="U0wfsAF0q6kyz8NtuZ6O-10" value="Telkom Lembong" style="outlineConnect=0;dashed=0;verticalLabelPosition=bottom;verticalAlign=top;align=center;html=1;shape=mxgraph.aws3.router;fillColor=#F58536;gradientColor=none;" vertex="1" parent="1">
          <mxGeometry x="80" y="470" width="50" height="50" as="geometry" />
        </mxCell>
        <mxCell id="U0wfsAF0q6kyz8NtuZ6O-11" value="TMR Cimahi" style="outlineConnect=0;dashed=0;verticalLabelPosition=bottom;verticalAlign=top;align=center;html=1;shape=mxgraph.aws3.router;fillColor=#F58536;gradientColor=none;" vertex="1" parent="1">
          <mxGeometry x="90" y="600" width="50" height="50" as="geometry" />
        </mxCell>
        <mxCell id="U0wfsAF0q6kyz8NtuZ6O-12" value="DAM Cibereum" style="outlineConnect=0;dashed=0;verticalLabelPosition=bottom;verticalAlign=top;align=center;html=1;shape=mxgraph.aws3.router;fillColor=#F58536;gradientColor=none;" vertex="1" parent="1">
          <mxGeometry x="260" y="680" width="50" height="50" as="geometry" />
        </mxCell>
        <mxCell id="U0wfsAF0q6kyz8NtuZ6O-13" value="Sanbe Tamansari" style="outlineConnect=0;dashed=0;verticalLabelPosition=bottom;verticalAlign=top;align=center;html=1;shape=mxgraph.aws3.router;fillColor=#F58536;gradientColor=none;" vertex="1" parent="1">
          <mxGeometry x="460" y="630" width="50" height="50" as="geometry" />
        </mxCell>
        <mxCell id="U0wfsAF0q6kyz8NtuZ6O-14" value="" style="endArrow=classic;startArrow=none;html=1;rounded=0;exitX=1;exitY=0.5;exitDx=0;exitDy=0;exitPerimeter=0;entryX=0;entryY=0.5;entryDx=0;entryDy=0;entryPerimeter=0;" edge="1" parent="1" source="U0wfsAF0q6kyz8NtuZ6O-53" target="U0wfsAF0q6kyz8NtuZ6O-3">
          <mxGeometry width="50" height="50" relative="1" as="geometry">
            <mxPoint x="330" y="660" as="sourcePoint" />
            <mxPoint x="380" y="610" as="targetPoint" />
          </mxGeometry>
        </mxCell>
        <mxCell id="U0wfsAF0q6kyz8NtuZ6O-15" value="" style="endArrow=classic;startArrow=none;html=1;rounded=0;exitX=0.855;exitY=0.145;exitDx=0;exitDy=0;exitPerimeter=0;" edge="1" parent="1" source="U0wfsAF0q6kyz8NtuZ6O-51">
          <mxGeometry width="50" height="50" relative="1" as="geometry">
            <mxPoint x="220" y="630" as="sourcePoint" />
            <mxPoint x="270" y="510" as="targetPoint" />
          </mxGeometry>
        </mxCell>
        <mxCell id="U0wfsAF0q6kyz8NtuZ6O-16" value="" style="endArrow=classic;startArrow=none;html=1;rounded=0;entryX=0.5;entryY=1;entryDx=0;entryDy=0;entryPerimeter=0;" edge="1" parent="1" source="U0wfsAF0q6kyz8NtuZ6O-49" target="U0wfsAF0q6kyz8NtuZ6O-3">
          <mxGeometry width="50" height="50" relative="1" as="geometry">
            <mxPoint x="300" y="680" as="sourcePoint" />
            <mxPoint x="350" y="630" as="targetPoint" />
          </mxGeometry>
        </mxCell>
        <mxCell id="U0wfsAF0q6kyz8NtuZ6O-17" value="" style="endArrow=classic;startArrow=none;html=1;rounded=0;entryX=0.855;entryY=0.855;entryDx=0;entryDy=0;entryPerimeter=0;" edge="1" parent="1" source="U0wfsAF0q6kyz8NtuZ6O-46" target="U0wfsAF0q6kyz8NtuZ6O-3">
          <mxGeometry width="50" height="50" relative="1" as="geometry">
            <mxPoint x="430" y="610" as="sourcePoint" />
            <mxPoint x="300" y="710" as="targetPoint" />
          </mxGeometry>
        </mxCell>
        <mxCell id="U0wfsAF0q6kyz8NtuZ6O-22" value="SMK Pertanian Karawang" style="outlineConnect=0;dashed=0;verticalLabelPosition=bottom;verticalAlign=top;align=center;html=1;shape=mxgraph.aws3.router;fillColor=#F58536;gradientColor=none;" vertex="1" parent="1">
          <mxGeometry x="410" y="60" width="50" height="50" as="geometry" />
        </mxCell>
        <mxCell id="U0wfsAF0q6kyz8NtuZ6O-25" value="DAM Cirebon" style="outlineConnect=0;dashed=0;verticalLabelPosition=bottom;verticalAlign=top;align=center;html=1;shape=mxgraph.aws3.router;fillColor=#F58536;gradientColor=none;" vertex="1" parent="1">
          <mxGeometry x="410" y="190" width="50" height="50" as="geometry" />
        </mxCell>
        <mxCell id="U0wfsAF0q6kyz8NtuZ6O-27" value="" style="endArrow=classic;startArrow=none;html=1;rounded=0;" edge="1" parent="1" source="U0wfsAF0q6kyz8NtuZ6O-59" target="U0wfsAF0q6kyz8NtuZ6O-25">
          <mxGeometry width="50" height="50" relative="1" as="geometry">
            <mxPoint x="320" y="240" as="sourcePoint" />
            <mxPoint x="370" y="190" as="targetPoint" />
          </mxGeometry>
        </mxCell>
        <mxCell id="U0wfsAF0q6kyz8NtuZ6O-28" value="" style="endArrow=classic;startArrow=none;html=1;rounded=0;exitX=0.855;exitY=0.855;exitDx=0;exitDy=0;exitPerimeter=0;entryX=0.145;entryY=0.145;entryDx=0;entryDy=0;entryPerimeter=0;" edge="1" parent="1" source="U0wfsAF0q6kyz8NtuZ6O-61" target="U0wfsAF0q6kyz8NtuZ6O-2">
          <mxGeometry width="50" height="50" relative="1" as="geometry">
            <mxPoint x="550" y="240" as="sourcePoint" />
            <mxPoint x="600" y="190" as="targetPoint" />
          </mxGeometry>
        </mxCell>
        <mxCell id="U0wfsAF0q6kyz8NtuZ6O-29" value="" style="endArrow=classic;startArrow=none;html=1;rounded=0;entryX=0.145;entryY=0.855;entryDx=0;entryDy=0;entryPerimeter=0;" edge="1" parent="1" source="U0wfsAF0q6kyz8NtuZ6O-63" target="U0wfsAF0q6kyz8NtuZ6O-22">
          <mxGeometry width="50" height="50" relative="1" as="geometry">
            <mxPoint x="290" y="270" as="sourcePoint" />
            <mxPoint x="350" y="180" as="targetPoint" />
          </mxGeometry>
        </mxCell>
        <mxCell id="U0wfsAF0q6kyz8NtuZ6O-30" value="" style="endArrow=classic;startArrow=none;html=1;rounded=0;exitX=0.855;exitY=0.855;exitDx=0;exitDy=0;exitPerimeter=0;entryX=0.5;entryY=0;entryDx=0;entryDy=0;entryPerimeter=0;" edge="1" parent="1" source="U0wfsAF0q6kyz8NtuZ6O-65" target="U0wfsAF0q6kyz8NtuZ6O-2">
          <mxGeometry width="50" height="50" relative="1" as="geometry">
            <mxPoint x="560" y="180" as="sourcePoint" />
            <mxPoint x="610" y="130" as="targetPoint" />
          </mxGeometry>
        </mxCell>
        <mxCell id="U0wfsAF0q6kyz8NtuZ6O-33" value="" style="endArrow=none;dashed=1;html=1;rounded=0;exitX=0.855;exitY=0.855;exitDx=0;exitDy=0;exitPerimeter=0;entryX=0.145;entryY=0.855;entryDx=0;entryDy=0;entryPerimeter=0;startArrow=none;" edge="1" parent="1" source="U0wfsAF0q6kyz8NtuZ6O-39" target="U0wfsAF0q6kyz8NtuZ6O-2">
          <mxGeometry width="50" height="50" relative="1" as="geometry">
            <mxPoint x="250" y="410" as="sourcePoint" />
            <mxPoint x="300" y="360" as="targetPoint" />
          </mxGeometry>
        </mxCell>
        <mxCell id="U0wfsAF0q6kyz8NtuZ6O-35" value="" style="curved=1;endArrow=classic;html=1;rounded=0;exitX=0;exitY=0.5;exitDx=0;exitDy=0;exitPerimeter=0;entryX=1;entryY=0.5;entryDx=0;entryDy=0;entryPerimeter=0;startArrow=none;" edge="1" parent="1" source="U0wfsAF0q6kyz8NtuZ6O-57" target="U0wfsAF0q6kyz8NtuZ6O-2">
          <mxGeometry width="50" height="50" relative="1" as="geometry">
            <mxPoint x="250" y="410" as="sourcePoint" />
            <mxPoint x="690" y="240" as="targetPoint" />
            <Array as="points">
              <mxPoint x="230" y="140" />
              <mxPoint x="330" y="30" />
              <mxPoint x="480" y="-10" />
              <mxPoint x="600" y="60" />
              <mxPoint x="660" y="140" />
            </Array>
          </mxGeometry>
        </mxCell>
        <mxCell id="U0wfsAF0q6kyz8NtuZ6O-41" value="" style="endArrow=none;dashed=1;html=1;dashPattern=1 3;strokeWidth=2;rounded=0;entryX=0;entryY=0.5;entryDx=0;entryDy=0;entryPerimeter=0;startArrow=none;" edge="1" parent="1" source="U0wfsAF0q6kyz8NtuZ6O-40" target="U0wfsAF0q6kyz8NtuZ6O-13">
          <mxGeometry width="50" height="50" relative="1" as="geometry">
            <mxPoint x="300" y="530" as="sourcePoint" />
            <mxPoint x="390" y="510" as="targetPoint" />
          </mxGeometry>
        </mxCell>
        <mxCell id="U0wfsAF0q6kyz8NtuZ6O-40" value="BIT" style="text;html=1;strokeColor=none;fillColor=none;align=center;verticalAlign=middle;whiteSpace=wrap;rounded=0;" vertex="1" parent="1">
          <mxGeometry x="380" y="600" width="60" height="30" as="geometry" />
        </mxCell>
        <mxCell id="U0wfsAF0q6kyz8NtuZ6O-42" value="" style="endArrow=none;dashed=1;html=1;dashPattern=1 3;strokeWidth=2;rounded=0;" edge="1" parent="1">
          <mxGeometry width="50" height="50" relative="1" as="geometry">
            <mxPoint x="300" y="530" as="sourcePoint" />
            <mxPoint x="390" y="600" as="targetPoint" />
          </mxGeometry>
        </mxCell>
        <mxCell id="U0wfsAF0q6kyz8NtuZ6O-36" value="TIS" style="text;strokeColor=none;fillColor=none;align=left;verticalAlign=middle;spacingLeft=4;spacingRight=4;overflow=hidden;points=[[0,0.5],[1,0.5]];portConstraint=eastwest;rotatable=0;whiteSpace=wrap;html=1;" vertex="1" parent="1">
          <mxGeometry x="420" y="480" width="30" height="30" as="geometry" />
        </mxCell>
        <mxCell id="U0wfsAF0q6kyz8NtuZ6O-43" value="" style="endArrow=none;startArrow=classic;html=1;rounded=0;exitX=1;exitY=0.5;exitDx=0;exitDy=0;exitPerimeter=0;entryX=0;entryY=0.5;entryDx=0;entryDy=0;entryPerimeter=0;" edge="1" parent="1" source="U0wfsAF0q6kyz8NtuZ6O-3" target="U0wfsAF0q6kyz8NtuZ6O-36">
          <mxGeometry width="50" height="50" relative="1" as="geometry">
            <mxPoint x="310" y="495" as="sourcePoint" />
            <mxPoint x="590" y="495" as="targetPoint" />
          </mxGeometry>
        </mxCell>
        <mxCell id="U0wfsAF0q6kyz8NtuZ6O-38" value="FS" style="text;html=1;strokeColor=none;fillColor=none;align=center;verticalAlign=middle;whiteSpace=wrap;rounded=0;" vertex="1" parent="1">
          <mxGeometry x="585" y="390" width="60" height="30" as="geometry" />
        </mxCell>
        <mxCell id="U0wfsAF0q6kyz8NtuZ6O-44" value="" style="endArrow=none;startArrow=classic;html=1;rounded=0;entryX=0.5;entryY=1;entryDx=0;entryDy=0;entryPerimeter=0;exitX=0.5;exitY=0;exitDx=0;exitDy=0;exitPerimeter=0;" edge="1" parent="1" source="U0wfsAF0q6kyz8NtuZ6O-4" target="U0wfsAF0q6kyz8NtuZ6O-38">
          <mxGeometry width="50" height="50" relative="1" as="geometry">
            <mxPoint x="615" y="470" as="sourcePoint" />
            <mxPoint x="615" y="330" as="targetPoint" />
          </mxGeometry>
        </mxCell>
        <mxCell id="U0wfsAF0q6kyz8NtuZ6O-37" value="SDI" style="text;strokeColor=none;fillColor=none;align=left;verticalAlign=middle;spacingLeft=4;spacingRight=4;overflow=hidden;points=[[0,0.5],[1,0.5]];portConstraint=eastwest;rotatable=0;whiteSpace=wrap;html=1;" vertex="1" parent="1">
          <mxGeometry x="265" y="390" width="40" height="30" as="geometry" />
        </mxCell>
        <mxCell id="U0wfsAF0q6kyz8NtuZ6O-45" value="" style="endArrow=none;startArrow=classic;html=1;rounded=0;entryX=0.5;entryY=1;entryDx=0;entryDy=0;entryPerimeter=0;exitX=0.5;exitY=0;exitDx=0;exitDy=0;exitPerimeter=0;" edge="1" parent="1" source="U0wfsAF0q6kyz8NtuZ6O-3" target="U0wfsAF0q6kyz8NtuZ6O-37">
          <mxGeometry width="50" height="50" relative="1" as="geometry">
            <mxPoint x="285" y="470" as="sourcePoint" />
            <mxPoint x="285" y="330" as="targetPoint" />
          </mxGeometry>
        </mxCell>
        <mxCell id="U0wfsAF0q6kyz8NtuZ6O-46" value="Vaquest" style="text;html=1;strokeColor=none;fillColor=none;align=center;verticalAlign=middle;whiteSpace=wrap;rounded=0;" vertex="1" parent="1">
          <mxGeometry x="360" y="560" width="60" height="30" as="geometry" />
        </mxCell>
        <mxCell id="U0wfsAF0q6kyz8NtuZ6O-47" value="" style="endArrow=none;startArrow=classic;html=1;rounded=0;entryX=0.855;entryY=0.855;entryDx=0;entryDy=0;entryPerimeter=0;exitX=0.5;exitY=0;exitDx=0;exitDy=0;exitPerimeter=0;" edge="1" parent="1" source="U0wfsAF0q6kyz8NtuZ6O-13" target="U0wfsAF0q6kyz8NtuZ6O-46">
          <mxGeometry width="50" height="50" relative="1" as="geometry">
            <mxPoint x="430" y="610" as="sourcePoint" />
            <mxPoint x="302.75" y="512.75" as="targetPoint" />
          </mxGeometry>
        </mxCell>
        <mxCell id="U0wfsAF0q6kyz8NtuZ6O-39" value="SDI" style="text;html=1;strokeColor=none;fillColor=none;align=center;verticalAlign=middle;whiteSpace=wrap;rounded=0;" vertex="1" parent="1">
          <mxGeometry x="410" y="320" width="60" height="30" as="geometry" />
        </mxCell>
        <mxCell id="U0wfsAF0q6kyz8NtuZ6O-48" value="" style="endArrow=none;dashed=1;html=1;rounded=0;exitX=0.855;exitY=0.855;exitDx=0;exitDy=0;exitPerimeter=0;entryX=0.145;entryY=0.855;entryDx=0;entryDy=0;entryPerimeter=0;" edge="1" parent="1" source="U0wfsAF0q6kyz8NtuZ6O-1" target="U0wfsAF0q6kyz8NtuZ6O-39">
          <mxGeometry width="50" height="50" relative="1" as="geometry">
            <mxPoint x="302.75" y="322.75" as="sourcePoint" />
            <mxPoint x="597.2499999999998" y="322.75" as="targetPoint" />
          </mxGeometry>
        </mxCell>
        <mxCell id="U0wfsAF0q6kyz8NtuZ6O-49" value="BIT" style="text;html=1;align=center;verticalAlign=middle;resizable=0;points=[];autosize=1;strokeColor=none;fillColor=none;" vertex="1" parent="1">
          <mxGeometry x="265" y="600" width="40" height="30" as="geometry" />
        </mxCell>
        <mxCell id="U0wfsAF0q6kyz8NtuZ6O-50" value="" style="endArrow=none;startArrow=classic;html=1;rounded=0;entryX=0.5;entryY=1;entryDx=0;entryDy=0;entryPerimeter=0;" edge="1" parent="1" source="U0wfsAF0q6kyz8NtuZ6O-12" target="U0wfsAF0q6kyz8NtuZ6O-49">
          <mxGeometry width="50" height="50" relative="1" as="geometry">
            <mxPoint x="285" y="680" as="sourcePoint" />
            <mxPoint x="285" y="520" as="targetPoint" />
          </mxGeometry>
        </mxCell>
        <mxCell id="U0wfsAF0q6kyz8NtuZ6O-51" value="BIT" style="text;html=1;align=center;verticalAlign=middle;resizable=0;points=[];autosize=1;strokeColor=none;fillColor=none;" vertex="1" parent="1">
          <mxGeometry x="160" y="560" width="40" height="30" as="geometry" />
        </mxCell>
        <mxCell id="U0wfsAF0q6kyz8NtuZ6O-52" value="" style="endArrow=none;startArrow=classic;html=1;rounded=0;exitX=0.855;exitY=0.145;exitDx=0;exitDy=0;exitPerimeter=0;" edge="1" parent="1" source="U0wfsAF0q6kyz8NtuZ6O-11" target="U0wfsAF0q6kyz8NtuZ6O-51">
          <mxGeometry width="50" height="50" relative="1" as="geometry">
            <mxPoint x="132.75" y="607.2499999999998" as="sourcePoint" />
            <mxPoint x="270" y="510" as="targetPoint" />
          </mxGeometry>
        </mxCell>
        <mxCell id="U0wfsAF0q6kyz8NtuZ6O-53" value="TIS" style="text;html=1;align=center;verticalAlign=middle;resizable=0;points=[];autosize=1;strokeColor=none;fillColor=none;" vertex="1" parent="1">
          <mxGeometry x="170" y="480" width="40" height="30" as="geometry" />
        </mxCell>
        <mxCell id="U0wfsAF0q6kyz8NtuZ6O-54" value="" style="endArrow=none;startArrow=classic;html=1;rounded=0;exitX=1;exitY=0.5;exitDx=0;exitDy=0;exitPerimeter=0;entryX=0;entryY=0.5;entryDx=0;entryDy=0;entryPerimeter=0;" edge="1" parent="1" source="U0wfsAF0q6kyz8NtuZ6O-10" target="U0wfsAF0q6kyz8NtuZ6O-53">
          <mxGeometry width="50" height="50" relative="1" as="geometry">
            <mxPoint x="130" y="495" as="sourcePoint" />
            <mxPoint x="260" y="495" as="targetPoint" />
          </mxGeometry>
        </mxCell>
        <mxCell id="U0wfsAF0q6kyz8NtuZ6O-55" value="JLM" style="text;html=1;align=center;verticalAlign=middle;resizable=0;points=[];autosize=1;strokeColor=none;fillColor=none;" vertex="1" parent="1">
          <mxGeometry x="410" y="280" width="50" height="30" as="geometry" />
        </mxCell>
        <mxCell id="U0wfsAF0q6kyz8NtuZ6O-56" value="" style="endArrow=none;startArrow=classic;html=1;rounded=0;exitX=1;exitY=0.5;exitDx=0;exitDy=0;exitPerimeter=0;entryX=0;entryY=0.5;entryDx=0;entryDy=0;entryPerimeter=0;" edge="1" parent="1" source="U0wfsAF0q6kyz8NtuZ6O-1" target="U0wfsAF0q6kyz8NtuZ6O-55">
          <mxGeometry width="50" height="50" relative="1" as="geometry">
            <mxPoint x="310" y="305" as="sourcePoint" />
            <mxPoint x="590" y="305" as="targetPoint" />
          </mxGeometry>
        </mxCell>
        <mxCell id="U0wfsAF0q6kyz8NtuZ6O-59" value="FS" style="text;html=1;align=center;verticalAlign=middle;resizable=0;points=[];autosize=1;strokeColor=none;fillColor=none;" vertex="1" parent="1">
          <mxGeometry x="340" y="240" width="40" height="30" as="geometry" />
        </mxCell>
        <mxCell id="U0wfsAF0q6kyz8NtuZ6O-60" value="" style="endArrow=none;startArrow=classic;html=1;rounded=0;" edge="1" parent="1" source="U0wfsAF0q6kyz8NtuZ6O-1" target="U0wfsAF0q6kyz8NtuZ6O-59">
          <mxGeometry width="50" height="50" relative="1" as="geometry">
            <mxPoint x="310" y="290" as="sourcePoint" />
            <mxPoint x="410" y="230" as="targetPoint" />
          </mxGeometry>
        </mxCell>
        <mxCell id="U0wfsAF0q6kyz8NtuZ6O-61" value="ISAT" style="text;html=1;align=center;verticalAlign=middle;resizable=0;points=[];autosize=1;strokeColor=none;fillColor=none;" vertex="1" parent="1">
          <mxGeometry x="490" y="240" width="50" height="30" as="geometry" />
        </mxCell>
        <mxCell id="U0wfsAF0q6kyz8NtuZ6O-62" value="" style="endArrow=none;startArrow=classic;html=1;rounded=0;exitX=0.855;exitY=0.855;exitDx=0;exitDy=0;exitPerimeter=0;entryX=0.145;entryY=0.145;entryDx=0;entryDy=0;entryPerimeter=0;" edge="1" parent="1" source="U0wfsAF0q6kyz8NtuZ6O-25" target="U0wfsAF0q6kyz8NtuZ6O-61">
          <mxGeometry width="50" height="50" relative="1" as="geometry">
            <mxPoint x="452.75" y="232.75" as="sourcePoint" />
            <mxPoint x="597.2499999999998" y="287.25" as="targetPoint" />
          </mxGeometry>
        </mxCell>
        <mxCell id="U0wfsAF0q6kyz8NtuZ6O-63" value="FS" style="text;html=1;align=center;verticalAlign=middle;resizable=0;points=[];autosize=1;strokeColor=none;fillColor=none;" vertex="1" parent="1">
          <mxGeometry x="330" y="170" width="40" height="30" as="geometry" />
        </mxCell>
        <mxCell id="U0wfsAF0q6kyz8NtuZ6O-64" value="" style="endArrow=none;startArrow=classic;html=1;rounded=0;entryX=0.145;entryY=0.855;entryDx=0;entryDy=0;entryPerimeter=0;" edge="1" parent="1" target="U0wfsAF0q6kyz8NtuZ6O-63">
          <mxGeometry width="50" height="50" relative="1" as="geometry">
            <mxPoint x="290" y="270" as="sourcePoint" />
            <mxPoint x="417.2499999999998" y="102.75" as="targetPoint" />
          </mxGeometry>
        </mxCell>
        <mxCell id="U0wfsAF0q6kyz8NtuZ6O-65" value="ISAT" style="text;html=1;align=center;verticalAlign=middle;resizable=0;points=[];autosize=1;strokeColor=none;fillColor=none;" vertex="1" parent="1">
          <mxGeometry x="500" y="170" width="50" height="30" as="geometry" />
        </mxCell>
        <mxCell id="U0wfsAF0q6kyz8NtuZ6O-66" value="" style="endArrow=none;startArrow=classic;html=1;rounded=0;exitX=0.855;exitY=0.855;exitDx=0;exitDy=0;exitPerimeter=0;entryX=0.5;entryY=0;entryDx=0;entryDy=0;entryPerimeter=0;" edge="1" parent="1" source="U0wfsAF0q6kyz8NtuZ6O-22" target="U0wfsAF0q6kyz8NtuZ6O-65">
          <mxGeometry width="50" height="50" relative="1" as="geometry">
            <mxPoint x="452.75" y="102.75" as="sourcePoint" />
            <mxPoint x="615" y="280" as="targetPoint" />
          </mxGeometry>
        </mxCell>
        <mxCell id="U0wfsAF0q6kyz8NtuZ6O-57" value="Non SLA" style="text;html=1;align=center;verticalAlign=middle;resizable=0;points=[];autosize=1;strokeColor=none;fillColor=none;rotation=105;" vertex="1" parent="1">
          <mxGeometry x="235" y="160" width="70" height="30" as="geometry" />
        </mxCell>
        <mxCell id="U0wfsAF0q6kyz8NtuZ6O-69" value="" style="curved=1;endArrow=none;html=1;rounded=0;exitX=0;exitY=0.5;exitDx=0;exitDy=0;exitPerimeter=0;entryX=1;entryY=0.5;entryDx=0;entryDy=0;entryPerimeter=0;" edge="1" parent="1" source="U0wfsAF0q6kyz8NtuZ6O-1" target="U0wfsAF0q6kyz8NtuZ6O-57">
          <mxGeometry width="50" height="50" relative="1" as="geometry">
            <mxPoint x="260" y="305" as="sourcePoint" />
            <mxPoint x="640" y="305" as="targetPoint" />
            <Array as="points" />
          </mxGeometry>
        </mxCell>
      </root>
    </mxGraphModel>
  </diagram>
</mxfile>
